<?xml version="1.0" encoding="utf-8"?>
<!-- Generator: Adobe Illustrator 27.5.0, SVG Export Plug-In . SVG Version: 6.00 Build 0)  -->
<svg version="1.1" id="Layer_1" xmlns="http://www.w3.org/2000/svg" xmlns:xlink="http://www.w3.org/1999/xlink" x="0px" y="0px"
	 viewBox="0 0 288 288" style="enable-background:new 0 0 288 288;" xml:space="preserve">
<g>
	<linearGradient id="SVGID_1_" gradientUnits="userSpaceOnUse" x1="264.2565" y1="-43.5008" x2="38.9221" y2="307.8348">
		<stop  offset="0" style="stop-color:#FFFFFF"/>
		<stop  offset="0.4785" style="stop-color:#D9D9D9"/>
		<stop  offset="0.6579" style="stop-color:#ACACAC"/>
		<stop  offset="0.8877" style="stop-color:#777777"/>
		<stop  offset="1" style="stop-color:#626262"/>
	</linearGradient>
	<rect x="0" y="0" style="fill-rule:evenodd;clip-rule:evenodd;fill:url(#SVGID_1_);" width="288" height="288"/>
	<g>
		
			<radialGradient id="SVGID_00000156579606749089084630000006457169035149272240_" cx="-173.9482" cy="-482.4399" r="61.2993" fx="-153.1305" fy="-483.1574" gradientTransform="matrix(1.7581 0 0 0.3176 428.9815 383.8957)" gradientUnits="userSpaceOnUse">
			<stop  offset="0.3925" style="stop-color:#787878"/>
			<stop  offset="0.4462" style="stop-color:#A8A8A8"/>
			<stop  offset="0.5589" style="stop-color:#C0C0C0"/>
			<stop  offset="0.7451" style="stop-color:#E2E2E2"/>
			<stop  offset="0.8989" style="stop-color:#F7F7F7"/>
			<stop  offset="1" style="stop-color:#FFFFFF"/>
		</radialGradient>
		<path style="fill-rule:evenodd;clip-rule:evenodd;fill:url(#SVGID_00000156579606749089084630000006457169035149272240_);" d="
			M230.928,230.674c0,10.754-48.248,19.469-107.764,19.469c-59.518,0-107.766-8.715-107.766-19.469s48.248-19.471,107.766-19.471
			C182.68,211.203,230.928,219.92,230.928,230.674z"/>
		<g>
			
				<linearGradient id="SVGID_00000075883118338214354650000006996539208587280547_" gradientUnits="userSpaceOnUse" x1="141.8622" y1="83.5424" x2="225.3326" y2="116.7602">
				<stop  offset="0" style="stop-color:#F0F1F2"/>
				<stop  offset="0.0747" style="stop-color:#EDEDEE"/>
				<stop  offset="0.1438" style="stop-color:#E2E2E3"/>
				<stop  offset="0.2105" style="stop-color:#D0D0D0"/>
				<stop  offset="0.2312" style="stop-color:#C9C9C9"/>
				<stop  offset="0.7174" style="stop-color:#FAFAFA"/>
				<stop  offset="0.8979" style="stop-color:#F4F4F4"/>
				<stop  offset="1" style="stop-color:#FFFFFF"/>
			</linearGradient>
			<path style="fill:url(#SVGID_00000075883118338214354650000006996539208587280547_);" d="M232.736,125.994
				c-4.248,4.957-22.004,14.166-31.201,14.58c-2.777,0.123-4.771-0.561-5.377-2.4c-0.965-2.932-4.242-10.908-6.434-16.178
				c-1.199-2.881-2.074-4.951-2.074-4.951l15.316-43.4C218.43,83.43,220.959,95.859,232.736,125.994z"/>
			
				<linearGradient id="SVGID_00000128457641777407432370000004200811145299660933_" gradientUnits="userSpaceOnUse" x1="44.0194" y1="137.9843" x2="101.9893" y2="93.7325">
				<stop  offset="0" style="stop-color:#F0F1F2"/>
				<stop  offset="0.0747" style="stop-color:#EDEDEE"/>
				<stop  offset="0.1438" style="stop-color:#E2E2E3"/>
				<stop  offset="0.2105" style="stop-color:#D0D0D0"/>
				<stop  offset="0.2312" style="stop-color:#C9C9C9"/>
				<stop  offset="0.8979" style="stop-color:#F4F4F4"/>
				<stop  offset="1" style="stop-color:#FFFFFF"/>
			</linearGradient>
			<path style="fill:url(#SVGID_00000128457641777407432370000004200811145299660933_);" d="M97.674,117.045
				c0,0-0.982,2.318-2.285,5.455c-2.186,5.264-5.289,12.832-6.221,15.674c-0.664,2.018-2.99,2.637-6.189,2.338
				c-9.389-0.869-26.264-9.701-30.391-14.518c11.777-30.135,14.307-42.564,29.764-52.35L97.674,117.045z"/>
			
				<linearGradient id="SVGID_00000075856850316006875380000018325000459931269054_" gradientUnits="userSpaceOnUse" x1="216.8931" y1="121.8392" x2="168.7995" y2="122.2562">
				<stop  offset="0.2312" style="stop-color:#FFFFFF"/>
				<stop  offset="0.2872" style="stop-color:#ECECEC"/>
				<stop  offset="0.7848" style="stop-color:#444444"/>
				<stop  offset="1" style="stop-color:#000000"/>
			</linearGradient>
			<path style="opacity:0.2;fill:url(#SVGID_00000075856850316006875380000018325000459931269054_);" d="M203.201,136.111
				c1.975-0.951,2.051-0.025-0.912,3.494c-0.287,0.338-0.537,0.664-0.754,0.969c-2.777,0.123-4.771-0.561-5.377-2.4
				c-0.965-2.932-4.242-10.908-6.434-16.178l0.506-0.455c0,0,4.33-17.008,4.578-17.99c0.25-0.984,0.211,3.709,0.072,8.851
				c-0.148,5.146-0.148,5.146-0.148,5.146s1.738-7.426,1.98-9.316c0.096-0.754,0.014,7.734-0.842,11.738
				c0,0,2.035-2.842,2.682-5.774c0.639-2.926,0.906,3.826-2.057,9.434c-2.965,5.615,1.373-0.332,2.375-1.125
				c0.996-0.791,4.107-3.5,0.926,3.193c-3.18,6.695-1.846,5.531-0.74,4.721c1.105-0.813,7.557-9.402,8.176-10.654
				c0.619-1.25-3.609,8.541-7.332,12.187c-3.717,3.646-1.119,2.172,1.027,1.398c2.146-0.771,5.014-2.504,6.023-3.609
				c1.01-1.104-2.279,3.514-6.795,7.186C195.646,140.602,201.229,137.063,203.201,136.111z"/>
			
				<linearGradient id="SVGID_00000099623564899148399970000007097290811732172674_" gradientUnits="userSpaceOnUse" x1="105.2385" y1="121.8435" x2="55.7668" y2="122.2724">
				<stop  offset="0.2312" style="stop-color:#FFFFFF"/>
				<stop  offset="0.2872" style="stop-color:#ECECEC"/>
				<stop  offset="0.7848" style="stop-color:#444444"/>
				<stop  offset="1" style="stop-color:#000000"/>
			</linearGradient>
			<path style="opacity:0.2;fill:url(#SVGID_00000099623564899148399970000007097290811732172674_);" d="M95.389,122.5
				c-2.186,5.264-5.289,12.832-6.221,15.674c-0.664,2.018-2.99,2.637-6.189,2.338c-0.205-0.287-0.441-0.588-0.709-0.906
				c-2.963-3.519-2.887-4.445-0.914-3.494c1.975,0.951,7.563,4.49,3.047,0.816c-4.516-3.672-7.805-8.289-6.795-7.186
				c1.008,1.105,3.875,2.838,6.021,3.609c2.146,0.773,4.752,2.248,1.029-1.398c-3.725-3.646-7.945-13.437-7.326-12.187
				c0.613,1.252,7.064,9.842,8.17,10.654c1.104,0.81,2.439,1.975-0.742-4.721c-3.182-6.693-0.07-3.984,0.934-3.193
				c0.994,0.793,5.338,6.74,2.375,1.125c-2.969-5.607-2.701-12.359-2.063-9.434c0.645,2.932,2.682,5.774,2.682,5.774
				c-0.855-4.004-0.939-12.492-0.842-11.738c0.248,1.891,1.979,9.316,1.979,9.316s0,0-0.139-5.146
				c-0.148-5.143-0.186-9.836,0.063-8.851c0.25,0.982,4.58,17.99,4.58,17.99L95.389,122.5z"/>
			
				<linearGradient id="SVGID_00000113314958613874715320000014879188653731332758_" gradientUnits="userSpaceOnUse" x1="100.8" y1="221.2052" x2="182.1299" y2="57.6934">
				<stop  offset="0" style="stop-color:#C9C9C9"/>
				<stop  offset="0.7174" style="stop-color:#FAFAFA"/>
				<stop  offset="0.8979" style="stop-color:#F4F4F4"/>
				<stop  offset="1" style="stop-color:#FFFFFF"/>
			</linearGradient>
			<path style="fill:url(#SVGID_00000113314958613874715320000014879188653731332758_);" d="M202.973,73.645
				c0,0-4.012,24.477-9.76,38.207c-1.277,3.061-2.479,6.676-3.557,10.688c-3.77,14-6.057,32.861-5.066,49.99
				c1.277,22.037,0.639,5.961,0.639,26.398c0,20.439,2.555,32.051,2.555,32.051s-0.479,0.402-1.762,1.016
				c-3.908,1.865-15.277,5.646-43.133,5.684v0.008c-0.076,0-0.154-0.008-0.23-0.008c-0.068,0-0.146,0.008-0.223,0.008v-0.008
				c-26.098-0.037-37.723-3.359-42.303-5.313c-1.908-0.813-2.592-1.387-2.592-1.387s2.555-11.611,2.555-32.051
				c0-20.438-0.639-4.361,0.639-26.398c0.945-16.324-1.086-34.232-4.549-47.998c-1.207-4.816-2.586-9.121-4.074-12.68
				c-5.748-13.73-9.76-38.207-9.76-38.207s9.186-4.1,25.728-8.736c5.639-1.584,10.084-2.619,15.188-3.258
				c5.103-0.639,10.877-0.883,19.168-0.895h0.453c16.588,0.02,23.07,0.984,34.357,4.152
				C193.787,69.545,202.973,73.645,202.973,73.645z"/>
			
				<linearGradient id="SVGID_00000011750099612224391090000009428955869476654214_" gradientUnits="userSpaceOnUse" x1="147.8506" y1="167.8453" x2="202.6937" y2="180.7664">
				<stop  offset="0.2312" style="stop-color:#FFFFFF"/>
				<stop  offset="0.2872" style="stop-color:#ECECEC"/>
				<stop  offset="0.7848" style="stop-color:#444444"/>
				<stop  offset="1" style="stop-color:#000000"/>
			</linearGradient>
			<path style="opacity:0.1;fill:url(#SVGID_00000011750099612224391090000009428955869476654214_);" d="M185.229,198.928
				c0,20.439,2.555,32.051,2.555,32.051s-0.479,0.402-1.762,1.016c-0.059-0.287-0.127-0.613-0.217-0.99
				c-0.928-3.807-2.32-6.393-3.15-4.791c-0.867,1.566-1.309,0.768-1.443-1.756c0.32-3.736-0.568-10.75-0.785-14.121
				c-0.363,1.775-1.354,4.68-3.711,8.533c-4.701,7.678-5.807,7.045-2.363-4.951c3.57-12.262,3.961-28.742,3.596-31.297
				c-0.363-2.555-2.664,9.402-6.514,13.572c-3.826,4.119-8.578,7.639-7.34,5.43c1.238-2.229,4.938-4.707,8.654-16.447
				c3.82-11.885,5.672-19.799,5.309-22.354c-0.313-2.561-1.412,1.24-4.752,7.824c-3.309,6.514-9.203,13.699-7.697,9.42
				c0.883-2.504,2.951-6.26,6.061-13.572c3.131-7.396,6.682-18.074,8.592-22.514c1.84-4.516-2.254,0.92-5.41,4.949
				c-3.148,3.967-5.576,6.617-0.791-1.438c4.84-8.232,2.836-6.449,6.24-12.455c3.475-6.137-0.523-4.955-4.068-2.715
				c-3.494,2.244-5.646,3.342-2.166-0.318c3.564-3.711,11.006-7.936,11.006-7.936c1.832-1.271,2.873-0.799,4.586-1.529
				c-3.77,14-6.057,32.861-5.066,49.99C185.867,194.566,185.229,178.49,185.229,198.928z"/>
			
				<linearGradient id="SVGID_00000128464375950052229080000003577321882171206792_" gradientUnits="userSpaceOnUse" x1="66.3447" y1="168.9819" x2="130.1871" y2="184.0232">
				<stop  offset="0.2312" style="stop-color:#FFFFFF"/>
				<stop  offset="0.2872" style="stop-color:#ECECEC"/>
				<stop  offset="0.7848" style="stop-color:#444444"/>
				<stop  offset="1" style="stop-color:#000000"/>
			</linearGradient>
			<path style="opacity:0.1;fill:url(#SVGID_00000128464375950052229080000003577321882171206792_);" d="M114.779,196.193
				c-3.852-4.17-6.145-16.127-6.514-13.572c-0.365,2.555,0.025,19.035,3.596,31.297c3.449,11.996,2.336,12.629-2.363,4.951
				c-2.357-3.857-3.348-6.764-3.711-8.541c-0.219,3.373-1.105,10.393-0.787,14.129c-0.133,2.523-0.574,3.322-1.443,1.756
				c-0.83-1.602-2.223,0.984-3.148,4.791c-0.133,0.543-0.223,0.99-0.275,1.361c-1.908-0.813-2.592-1.387-2.592-1.387
				s2.555-11.611,2.555-32.051c0-20.438-0.639-4.361,0.639-26.398c0.945-16.324-1.086-34.232-4.549-47.998
				c0.281-3.207,1.35-4.363,3.789-2.67c0,0,8.609,6.432,12.174,10.143c3.48,3.66,1.334,2.562-2.166,0.318
				c-3.545-2.24-7.543-3.422-4.068,2.715c3.404,6.006,1.398,4.223,6.24,12.455c4.783,8.055,2.357,5.404-0.791,1.438
				c-3.156-4.029-7.25-9.465-5.404-4.949c1.904,4.44,5.455,15.117,8.59,22.514c3.105,7.313,5.182,11.068,6.063,13.572
				c1.5,4.279-4.389-2.906-7.703-9.42c-3.34-6.584-4.432-10.385-4.752-7.824c-0.359,2.555,1.488,10.469,5.307,22.354
				c3.725,11.74,7.416,14.219,8.662,16.447C123.357,203.832,118.605,200.313,114.779,196.193z"/>
			
				<linearGradient id="SVGID_00000156583961985387603270000004322594468893610674_" gradientUnits="userSpaceOnUse" x1="144.3106" y1="95.8497" x2="144.3106" y2="41.8052">
				<stop  offset="0" style="stop-color:#F0F1F2"/>
				<stop  offset="0.0747" style="stop-color:#EDEDEE"/>
				<stop  offset="0.1438" style="stop-color:#E2E2E3"/>
				<stop  offset="0.2105" style="stop-color:#D0D0D0"/>
				<stop  offset="0.2312" style="stop-color:#C9C9C9"/>
				<stop  offset="0.7174" style="stop-color:#FAFAFA"/>
				<stop  offset="0.8979" style="stop-color:#F4F4F4"/>
				<stop  offset="1" style="stop-color:#FFFFFF"/>
			</linearGradient>
			<path style="fill:url(#SVGID_00000156583961985387603270000004322594468893610674_);" d="M125.189,60.65
				c-7.473,1.299-12.24,3.832-2.979,12.668c9.26,8.834,32.68,7.557,41.516,1.49c8.836-6.068,10.352-10.381,3.539-12.775
				C161.828,60.121,137.432,58.522,125.189,60.65z"/>
		</g>
	</g>
</g>
</svg>
